<svg width="18" height="16" viewBox="0 0 18 16" fill="none" xmlns="http://www.w3.org/2000/svg">
<path fill-rule="evenodd" clip-rule="evenodd" d="M9.62623 0.625901C10.0168 0.235377 10.6499 0.235377 11.0404 0.625901L17.7071 7.29257C17.8946 7.4801 18 7.73446 18 7.99967C18 8.26489 17.8946 8.51925 17.7071 8.70678L11.0404 15.3734C10.6499 15.764 10.0168 15.764 9.62623 15.3734C9.2357 14.9829 9.2357 14.3498 9.62623 13.9592L14.5858 8.99967L1 8.99967C0.447715 8.99967 0 8.55196 0 7.99967C5.96046e-08 7.44739 0.447715 6.99967 1 6.99967L14.5858 6.99967L9.62623 2.04011C9.2357 1.64959 9.2357 1.01643 9.62623 0.625901Z" fill="#23BC7C"/>
</svg>
