<svg width="52" height="43" viewBox="0 0 52 43" fill="none" xmlns="http://www.w3.org/2000/svg">
<path fill-rule="evenodd" clip-rule="evenodd" d="M4 6.79076V36.9945C6.93833 35.7175 10.3688 34.9997 14 34.9997C17.6312 34.9997 21.0617 35.7175 24 36.9945V6.79076C21.3403 5.27999 17.8615 4.33301 14 4.33301C10.1385 4.33301 6.65967 5.27999 4 6.79076ZM28 6.79076V36.9945C30.9383 35.7175 34.3688 34.9997 38 34.9997C41.6312 34.9997 45.0617 35.7175 48 36.9945V6.79076C45.3403 5.27999 41.8615 4.33301 38 4.33301C34.1385 4.33301 30.6597 5.27999 28 6.79076ZM26 3.3265C22.6745 1.4309 18.4908 0.333008 14 0.333008C8.99552 0.333008 4.37239 1.69645 0.893247 4.00789C0.335322 4.37856 0 5.00392 0 5.67376V40.3404C0 41.0774 0.405347 41.7547 1.05488 42.103C1.70442 42.4513 2.49287 42.4141 3.10675 42.0063C5.85638 40.1795 9.68986 38.9997 14 38.9997C18.3101 38.9997 22.1436 40.1795 24.8932 42.0063C25.5638 42.4518 26.4362 42.4518 27.1068 42.0063C29.8564 40.1795 33.6899 38.9997 38 38.9997C42.3101 38.9997 46.1436 40.1795 48.8932 42.0063C49.5071 42.4141 50.2956 42.4513 50.9451 42.103C51.5947 41.7547 52 41.0774 52 40.3404V5.67376C52 5.00392 51.6647 4.37856 51.1068 4.00789C47.6276 1.69645 43.0045 0.333008 38 0.333008C33.5092 0.333008 29.3256 1.4309 26 3.3265Z" fill="#CDD3D4"/>
</svg>
