<svg width="14" height="14" viewBox="0 0 14 14" fill="none" xmlns="http://www.w3.org/2000/svg">
<path fill-rule="evenodd" clip-rule="evenodd" d="M4.33333 0.5C4.60948 0.5 4.83333 0.723858 4.83333 1V1.83333H9.16667V1C9.16667 0.723858 9.39052 0.5 9.66667 0.5C9.94281 0.5 10.1667 0.723858 10.1667 1V1.83333H11.6667C12.6792 1.83333 13.5 2.65414 13.5 3.66667V11.6667C13.5 12.6792 12.6792 13.5 11.6667 13.5H2.33333C1.32081 13.5 0.5 12.6792 0.5 11.6667V3.66667C0.5 2.65414 1.32081 1.83333 2.33333 1.83333H3.83333V1C3.83333 0.723858 4.05719 0.5 4.33333 0.5ZM3.83333 2.83333H2.33333C1.8731 2.83333 1.5 3.20643 1.5 3.66667V11.6667C1.5 12.1269 1.8731 12.5 2.33333 12.5H11.6667C12.1269 12.5 12.5 12.1269 12.5 11.6667V3.66667C12.5 3.20643 12.1269 2.83333 11.6667 2.83333H10.1667V3.66667C10.1667 3.94281 9.94281 4.16667 9.66667 4.16667C9.39052 4.16667 9.16667 3.94281 9.16667 3.66667V2.83333H4.83333V3.66667C4.83333 3.94281 4.60948 4.16667 4.33333 4.16667C4.05719 4.16667 3.83333 3.94281 3.83333 3.66667V2.83333ZM3.16667 6.33333C3.16667 6.05719 3.39052 5.83333 3.66667 5.83333H10.3333C10.6095 5.83333 10.8333 6.05719 10.8333 6.33333C10.8333 6.60948 10.6095 6.83333 10.3333 6.83333H3.66667C3.39052 6.83333 3.16667 6.60948 3.16667 6.33333Z" fill="#CACACA"/>
</svg>
