<svg width="42" height="52" viewBox="0 0 42 52" fill="none" xmlns="http://www.w3.org/2000/svg">
<path fill-rule="evenodd" clip-rule="evenodd" d="M11.2757 5.33333C12.1463 2.25533 14.9763 0 18.333 0H23.6663C27.0231 0 29.8531 2.25533 30.7236 5.33333H34.333C38.3831 5.33333 41.6663 8.61658 41.6663 12.6667V44.6667C41.6663 48.7168 38.3831 52 34.333 52H7.66634C3.61625 52 0.333008 48.7168 0.333008 44.6667V12.6667C0.333008 8.61658 3.61625 5.33333 7.66634 5.33333H11.2757ZM11.2757 9.33333H7.66634C5.82539 9.33333 4.33301 10.8257 4.33301 12.6667V44.6667C4.33301 46.5076 5.82539 48 7.66634 48H34.333C36.174 48 37.6663 46.5076 37.6663 44.6667V12.6667C37.6663 10.8257 36.174 9.33333 34.333 9.33333H30.7236C29.8531 12.4113 27.0231 14.6667 23.6663 14.6667H18.333C14.9763 14.6667 12.1463 12.4113 11.2757 9.33333ZM18.333 4C16.4921 4 14.9997 5.49238 14.9997 7.33333C14.9997 9.17428 16.4921 10.6667 18.333 10.6667H23.6663C25.5073 10.6667 26.9997 9.17428 26.9997 7.33333C26.9997 5.49238 25.5073 4 23.6663 4H18.333ZM10.9997 26C10.9997 24.8954 11.8951 24 12.9997 24H13.0263C14.1309 24 15.0263 24.8954 15.0263 26C15.0263 27.1046 14.1309 28 13.0263 28H12.9997C11.8951 28 10.9997 27.1046 10.9997 26ZM18.9997 26C18.9997 24.8954 19.8951 24 20.9997 24H28.9997C30.1042 24 30.9997 24.8954 30.9997 26C30.9997 27.1046 30.1042 28 28.9997 28H20.9997C19.8951 28 18.9997 27.1046 18.9997 26ZM10.9997 36.6667C10.9997 35.5621 11.8951 34.6667 12.9997 34.6667H13.0263C14.1309 34.6667 15.0263 35.5621 15.0263 36.6667C15.0263 37.7712 14.1309 38.6667 13.0263 38.6667H12.9997C11.8951 38.6667 10.9997 37.7712 10.9997 36.6667ZM18.9997 36.6667C18.9997 35.5621 19.8951 34.6667 20.9997 34.6667H28.9997C30.1042 34.6667 30.9997 35.5621 30.9997 36.6667C30.9997 37.7712 30.1042 38.6667 28.9997 38.6667H20.9997C19.8951 38.6667 18.9997 37.7712 18.9997 36.6667Z" fill="#CDD3D4"/>
</svg>
