<svg width="18" height="14" viewBox="0 0 18 14" fill="none" xmlns="http://www.w3.org/2000/svg">
<path fill-rule="evenodd" clip-rule="evenodd" d="M0.875066 2.83268C0.875066 1.56703 1.90108 0.541016 3.16673 0.541016H14.8334C16.0991 0.541016 17.1251 1.56703 17.1251 2.83268V3.65632C17.1252 3.6624 17.1252 3.66849 17.1251 3.67457V11.166C17.1251 12.4317 16.0991 13.4577 14.8334 13.4577H3.16673C1.90108 13.4577 0.875066 12.4317 0.875066 11.166V3.67456C0.874978 3.66848 0.874978 3.66241 0.875066 3.65632V2.83268ZM2.12507 4.83384V11.166C2.12507 11.7413 2.59144 12.2077 3.16673 12.2077H14.8334C15.4087 12.2077 15.8751 11.7413 15.8751 11.166V4.83384L10.2713 8.56971C9.50149 9.08289 8.49865 9.08289 7.72888 8.56971L2.12507 4.83384ZM15.8751 3.33153L9.57788 7.52965C9.22799 7.76291 8.77215 7.76291 8.42225 7.52965L2.12507 3.33153V2.83268C2.12507 2.25739 2.59144 1.79102 3.16673 1.79102H14.8334C15.4087 1.79102 15.8751 2.25739 15.8751 2.83268V3.33153Z" fill="#cacaca"/>
</svg>
