<svg width="16" height="17" viewBox="0 0 16 17" fill="none" xmlns="http://www.w3.org/2000/svg">
<path d="M0.5 8.7122L2.16667 7.01986M2.16667 7.01986L8 1.09668L13.8333 7.01986M2.16667 7.01986V15.4816C2.16667 15.9489 2.53976 16.3277 3 16.3277H5.5M13.8333 7.01986L15.5 8.7122M13.8333 7.01986V15.4816C13.8333 15.9489 13.4602 16.3277 13 16.3277H10.5M5.5 16.3277C5.96024 16.3277 6.33333 15.9489 6.33333 15.4816V12.0969C6.33333 11.6296 6.70643 11.2507 7.16667 11.2507H8.83333C9.29357 11.2507 9.66667 11.6296 9.66667 12.0969V15.4816C9.66667 15.9489 10.0398 16.3277 10.5 16.3277M5.5 16.3277H10.5" stroke="#EEEEEE" stroke-linecap="round" stroke-linejoin="round"/>
</svg>
