<svg width="48" height="54" viewBox="0 0 48 54" fill="none" xmlns="http://www.w3.org/2000/svg">
<path fill-rule="evenodd" clip-rule="evenodd" d="M37.6711 9.6626C30.1209 2.11247 17.8797 2.11247 10.3296 9.6626C2.77946 17.2127 2.77946 29.4539 10.3296 37.0041L22.5897 49.2642C23.3704 50.0449 24.6301 50.0451 25.4115 49.2636L37.6711 37.0041C45.2212 29.4539 45.2212 17.2127 37.6711 9.6626ZM7.50117 6.83418C16.6134 -2.27806 31.3872 -2.27806 40.4995 6.83418C49.6117 15.9464 49.6117 30.7203 40.4995 39.8325L28.4084 51.9235C28.3466 51.9854 28.3732 51.9588 28.3919 51.9401L28.2399 52.0921C25.8972 54.4348 22.1048 54.4362 19.7613 52.0926L7.50117 39.8325C-1.61107 30.7203 -1.61107 15.9464 7.50117 6.83418ZM24.0003 17.3333C20.6866 17.3333 18.0003 20.0196 18.0003 23.3333C18.0003 26.647 20.6866 29.3333 24.0003 29.3333C27.314 29.3333 30.0003 26.647 30.0003 23.3333C30.0003 20.0196 27.314 17.3333 24.0003 17.3333ZM14.0003 23.3333C14.0003 17.8105 18.4775 13.3333 24.0003 13.3333C29.5232 13.3333 34.0003 17.8105 34.0003 23.3333C34.0003 28.8562 29.5232 33.3333 24.0003 33.3333C18.4775 33.3333 14.0003 28.8562 14.0003 23.3333Z" fill="#CDD3D4"/>
</svg>
