<svg width="16" height="18" viewBox="0 0 16 18" fill="none" xmlns="http://www.w3.org/2000/svg">
<path d="M0.5 3.02242C0.5 2.08776 1.24619 1.33008 2.16667 1.33008H4.89937C5.25806 1.33008 5.57651 1.56314 5.68994 1.90867L6.93811 5.71087C7.06926 6.11036 6.89115 6.54697 6.52022 6.73529L4.63917 7.69031C5.55771 9.75895 7.19898 11.4255 9.23625 12.3582L10.1768 10.4482C10.3622 10.0715 10.7922 9.89068 11.1857 10.0238L14.9302 11.2912C15.2705 11.4064 15.5 11.7298 15.5 12.094V14.8688C15.5 15.8034 14.7538 16.5611 13.8333 16.5611H13C6.09644 16.5611 0.5 10.8785 0.5 3.86859V3.02242Z" stroke="#EEEEEE" stroke-linecap="round" stroke-linejoin="round"/>
</svg>
