<svg width="20" height="21" viewBox="0 0 20 21" fill="none" xmlns="http://www.w3.org/2000/svg">
<path d="M8.60386 3.65324C8.95919 2.16702 11.0408 2.16702 11.3961 3.65324C11.6257 4.61332 12.709 5.06894 13.5398 4.55487C14.8261 3.75908 16.298 5.25368 15.5143 6.55973C15.008 7.40342 15.4567 8.50337 16.4022 8.73645C17.8659 9.09725 17.8659 11.2109 16.4022 11.5717C15.4567 11.8048 15.008 12.9048 15.5143 13.7485C16.298 15.0545 14.8261 16.5491 13.5398 15.7533C12.709 15.2393 11.6257 15.6949 11.3961 16.655C11.0408 18.1412 8.95919 18.1412 8.60386 16.655C8.37431 15.6949 7.29105 15.2393 6.46016 15.7533C5.17392 16.5491 3.70199 15.0545 4.48571 13.7485C4.99198 12.9048 4.54327 11.8048 3.59776 11.5717C2.13408 11.2109 2.13408 9.09725 3.59776 8.73645C4.54327 8.50337 4.99198 7.40342 4.48571 6.55973C3.70199 5.25368 5.17392 3.75908 6.46015 4.55487C7.29105 5.06894 8.37431 4.61332 8.60386 3.65324Z" stroke="#EEEEEE" stroke-linecap="round" stroke-linejoin="round"/>
<path d="M12.5 10.1541C12.5 11.5561 11.3807 12.6926 10 12.6926C8.61929 12.6926 7.5 11.5561 7.5 10.1541C7.5 8.75212 8.61929 7.61559 10 7.61559C11.3807 7.61559 12.5 8.75212 12.5 10.1541Z" stroke="#EEEEEE" stroke-linecap="round" stroke-linejoin="round"/>
</svg>
