<svg width="14" height="18" viewBox="0 0 14 18" fill="none" xmlns="http://www.w3.org/2000/svg">
<path fill-rule="evenodd" clip-rule="evenodd" d="M7.00033 2.17306C5.50455 2.17306 4.29199 3.4043 4.29199 4.92311C4.29199 6.44192 5.50455 7.67316 7.00033 7.67316C8.4961 7.67316 9.70866 6.44192 9.70866 4.92311C9.70866 3.4043 8.4961 2.17306 7.00033 2.17306ZM3.04199 4.92311C3.04199 2.70331 4.8142 0.903809 7.00033 0.903809C9.18645 0.903809 10.9587 2.70331 10.9587 4.92311C10.9587 7.14291 9.18645 8.94241 7.00033 8.94241C4.8142 8.94241 3.04199 7.14291 3.04199 4.92311ZM1.82911 16.1349H12.1715C11.8628 13.5133 9.66529 11.4809 7.00033 11.4809C4.33536 11.4809 2.13787 13.5133 1.82911 16.1349ZM0.541992 16.7695C0.541992 13.1477 3.43349 10.2117 7.00033 10.2117C10.5672 10.2117 13.4587 13.1477 13.4587 16.7695C13.4587 17.12 13.1788 17.4041 12.8337 17.4041H1.16699C0.821814 17.4041 0.541992 17.12 0.541992 16.7695Z" fill="#CDD3D4"/>
</svg>
