<svg width="18" height="16" viewBox="0 0 18 16" fill="none" xmlns="http://www.w3.org/2000/svg">
<path d="M13.167 14.9757H17.3337V13.2834C17.3337 11.8814 16.2144 10.7449 14.8337 10.7449C14.0373 10.7449 13.3279 11.1229 12.8701 11.712M13.167 14.9757H4.83366M13.167 14.9757V13.2834C13.167 12.7281 13.0616 12.1978 12.8701 11.712M4.83366 14.9757H0.666992V13.2834C0.666992 11.8814 1.78628 10.7449 3.16699 10.7449C3.96333 10.7449 4.67271 11.1229 5.13053 11.712M4.83366 14.9757V13.2834C4.83366 12.7281 4.93901 12.1978 5.13053 11.712M5.13053 11.712C5.74491 10.1534 7.24601 9.05253 9.00033 9.05253C10.7546 9.05253 12.2557 10.1534 12.8701 11.712M11.5003 3.97552C11.5003 5.3775 10.381 6.51403 9.00033 6.51403C7.61961 6.51403 6.50033 5.3775 6.50033 3.97552C6.50033 2.57354 7.61961 1.43701 9.00033 1.43701C10.381 1.43701 11.5003 2.57354 11.5003 3.97552ZM16.5003 6.51403C16.5003 7.44868 15.7541 8.20636 14.8337 8.20636C13.9132 8.20636 13.167 7.44868 13.167 6.51403C13.167 5.57937 13.9132 4.82169 14.8337 4.82169C15.7541 4.82169 16.5003 5.57937 16.5003 6.51403ZM4.83366 6.51403C4.83366 7.44868 4.08747 8.20636 3.16699 8.20636C2.24652 8.20636 1.50033 7.44868 1.50033 6.51403C1.50033 5.57937 2.24652 4.82169 3.16699 4.82169C4.08747 4.82169 4.83366 5.57937 4.83366 6.51403Z" stroke="#EEEEEE" stroke-linecap="round" stroke-linejoin="round"/>
</svg>
