<svg width="14" height="14" viewBox="0 0 14 14" fill="none" xmlns="http://www.w3.org/2000/svg">
<path fill-rule="evenodd" clip-rule="evenodd" d="M7 1.5C3.96243 1.5 1.5 3.96243 1.5 7C1.5 10.0376 3.96243 12.5 7 12.5C10.0376 12.5 12.5 10.0376 12.5 7C12.5 3.96243 10.0376 1.5 7 1.5ZM0.5 7C0.5 3.41015 3.41015 0.5 7 0.5C10.5899 0.5 13.5 3.41015 13.5 7C13.5 10.5899 10.5899 13.5 7 13.5C3.41015 13.5 0.5 10.5899 0.5 7ZM7 3.83333C7.27614 3.83333 7.5 4.05719 7.5 4.33333V6.79289L9.35355 8.64645C9.54882 8.84171 9.54882 9.15829 9.35355 9.35355C9.15829 9.54882 8.84171 9.54882 8.64645 9.35355L6.64645 7.35355C6.55268 7.25979 6.5 7.13261 6.5 7V4.33333C6.5 4.05719 6.72386 3.83333 7 3.83333Z" fill="#CACACA"/>
</svg>
